<svg width="680" height="360" viewBox="0 0 680 360" fill="none" xmlns="http://www.w3.org/2000/svg" role="img" aria-label="Ink'd project card">
  <defs>
    <linearGradient id="ikGrad" x1="0" y1="0" x2="680" y2="360"><stop stop-color="#C084FC"/><stop offset="0.55" stop-color="#34D399"/><stop offset="1" stop-color="#FDE68A"/></linearGradient>
    <pattern id="ikGrid" width="34" height="34" patternUnits="userSpaceOnUse"><path d="M34 0H0V34" stroke="#FFFFFF" stroke-opacity="0.08"/></pattern>
  </defs>
  <rect width="680" height="360" rx="26" fill="#08090C"/>
  <rect width="680" height="360" rx="26" fill="url(#ikGrid)"/>
  <rect x="18" y="18" width="644" height="324" rx="22" fill="#FFFFFF" fill-opacity="0.06" stroke="#C084FC" stroke-opacity="0.35" stroke-width="1.5"/>
  <path d="M404 217C438 148 499 244 530 161C545 121 583 121 608 144" stroke="url(#ikGrad)" stroke-width="6" stroke-linecap="round" stroke-opacity="0.9"/>
  <text x="42" y="70" font-family="Consolas, Monaco, monospace" fill="#C4B5FD" font-size="13" font-weight="700">AI TOOLS | NLP</text>
  <text x="42" y="128" font-family="Segoe UI, Arial, sans-serif" fill="#FFFFFF" font-size="52" font-weight="700">Ink'd</text>
  <text x="44" y="166" font-family="Segoe UI, Arial, sans-serif" fill="#D4D4D8" font-size="20">AI Text Summariser with Export Flow</text>
  <text x="44" y="217" font-family="Consolas, Monaco, monospace" fill="#A1A1AA" font-size="14">Cohere NLP | Concise Outputs | Clean REST API</text>
  <g transform="translate(42 282)">
    <rect width="72" height="30" rx="9" fill="#C084FC" fill-opacity="0.14" stroke="#C084FC" stroke-opacity="0.45"/><text x="18" y="20" font-family="Consolas, Monaco, monospace" fill="#DDD6FE" font-size="11">Node</text>
    <rect x="84" width="88" height="30" rx="9" fill="#FFFFFF" fill-opacity="0.06" stroke="#FFFFFF" stroke-opacity="0.15"/><text x="101" y="20" font-family="Consolas, Monaco, monospace" fill="#E4E4E7" font-size="11">Cohere</text>
    <rect x="184" width="64" height="30" rx="9" fill="#FFFFFF" fill-opacity="0.06" stroke="#FFFFFF" stroke-opacity="0.15"/><text x="204" y="20" font-family="Consolas, Monaco, monospace" fill="#E4E4E7" font-size="11">NLP</text>
  </g>
</svg>
