<svg width="680" height="360" viewBox="0 0 680 360" fill="none" xmlns="http://www.w3.org/2000/svg" role="img" aria-label="RangRiti project card">
  <defs>
    <linearGradient id="rrGrad" x1="0" y1="0" x2="680" y2="360"><stop stop-color="#FDE68A"/><stop offset="0.5" stop-color="#FB7185"/><stop offset="1" stop-color="#34D399"/></linearGradient>
    <pattern id="rrGrid" width="34" height="34" patternUnits="userSpaceOnUse"><path d="M34 0H0V34" stroke="#FFFFFF" stroke-opacity="0.08"/></pattern>
  </defs>
  <metadata>
    <rdf:RDF xmlns:rdf="http://www.w3.org/1999/02/22-rdf-syntax-ns#" xmlns:dc="http://purl.org/dc/elements/1.1/">
      <rdf:Description dc:creator="Ojas Srivastava" dc:identifier="O5WS-7F3A9E2B1C4D" dc:source="https://github.com/Ojas-Srivastava05" dc:rights="Copyright 2027 Ojas Srivastava. Unauthorized copying prohibited."/>
    </rdf:RDF>
  </metadata>
  <!-- o5ws-integrity:project-rangriti:7f3a9e2b1c4d -->
  <text x="600" y="280" text-anchor="middle" fill="#FFFFFF" fill-opacity="0.018" font-size="11" font-family="Consolas, monospace" transform="rotate(-18 600 280)">O5WS-7F3A9E2B1C4D · OJAS-SRIVASTAVA05</text>
  <text x="-9999" y="-9999" opacity="0" font-size="1" aria-hidden="true">o5ws7f3a9e2b1c4d</text>
  <rect width="680" height="360" rx="26" fill="#08090C"/>
  <rect width="680" height="360" rx="26" fill="url(#rrGrid)"/>
  <rect x="18" y="18" width="644" height="324" rx="22" fill="#FFFFFF" fill-opacity="0.06" stroke="#FDE68A" stroke-opacity="0.35" stroke-width="1.5"/>
  <path d="M520 87L550 138L609 151L569 196L575 256L520 232L465 256L471 196L431 151L490 138Z" stroke="url(#rrGrad)" stroke-width="3" opacity="0.85"/>
  <circle cx="520" cy="168" r="38" stroke="#FDE68A" stroke-opacity="0.45" fill="none"/>
  <text x="42" y="70" font-family="Consolas, Monaco, monospace" fill="#FDE68A" font-size="13" font-weight="700">FULL STACK | CULTURAL TECH</text>
  <text x="42" y="128" font-family="Segoe UI, Arial, sans-serif" fill="#FFFFFF" font-size="52" font-weight="700">RangRiti</text>
  <text x="44" y="166" font-family="Segoe UI, Arial, sans-serif" fill="#D4D4D8" font-size="20">Cultural-Tech Experience Platform</text>
  <text x="44" y="217" font-family="Consolas, Monaco, monospace" fill="#A1A1AA" font-size="14">VR | AI Storytelling | Marketplace | 40+ Pages</text>
  <g transform="translate(42 282)">
    <rect width="72" height="30" rx="9" fill="#FDE68A" fill-opacity="0.14" stroke="#FDE68A" stroke-opacity="0.45"/><text x="18" y="20" font-family="Consolas, Monaco, monospace" fill="#FEF3C7" font-size="11">Node</text>
    <rect x="84" width="86" height="30" rx="9" fill="#FFFFFF" fill-opacity="0.06" stroke="#FFFFFF" stroke-opacity="0.15"/><text x="101" y="20" font-family="Consolas, Monaco, monospace" fill="#E4E4E7" font-size="11">MongoDB</text>
    <rect x="182" width="96" height="30" rx="9" fill="#FFFFFF" fill-opacity="0.06" stroke="#FFFFFF" stroke-opacity="0.15"/><text x="199" y="20" font-family="Consolas, Monaco, monospace" fill="#E4E4E7" font-size="11">Cloudinary</text>
  </g>
</svg>
